<?xml version="1.0" standalone="no"?>
<!DOCTYPE svg PUBLIC "-//W3C//DTD SVG 20010904//EN"
 "http://www.w3.org/TR/2001/REC-SVG-20010904/DTD/svg10.dtd">
<svg version="1.0" xmlns="http://www.w3.org/2000/svg"
 width="487.000000pt" height="487.000000pt" viewBox="0 0 487.000000 487.000000"
 preserveAspectRatio="xMidYMid meet">
<metadata>
Created by potrace 1.14, written by Peter Selinger 2001-2017
</metadata>
<g transform="translate(0.000000,487.000000) scale(0.100000,-0.100000)"
fill="#000000" stroke="none">
<path d="M2225 4863 c-45 -5 -227 -32 -250 -37 -156 -34 -216 -49 -252 -63
-10 -3 -20 -7 -23 -8 -3 -1 -21 -6 -40 -12 -244 -73 -579 -263 -805 -454 -42
-36 -250 -243 -275 -275 -202 -253 -330 -472 -428 -734 -49 -132 -103 -335
-118 -445 -3 -22 -7 -46 -9 -53 -19 -57 -27 -469 -12 -602 26 -226 71 -410
155 -630 74 -195 250 -504 351 -618 9 -9 34 -40 56 -67 65 -82 233 -245 335
-327 209 -167 415 -283 685 -388 120 -47 308 -96 440 -116 22 -3 58 -9 80 -13
53 -10 147 -14 330 -14 215 -1 298 7 503 47 79 16 311 85 357 106 11 5 62 27
113 49 192 82 419 223 587 363 49 41 249 242 295 296 139 165 307 438 370 605
12 28 25 61 30 72 33 70 90 260 118 395 37 177 47 275 47 495 0 222 -7 295
-47 490 -81 401 -242 733 -526 1088 -25 30 -232 237 -273 272 -232 198 -517
359 -807 455 -147 49 -333 94 -427 105 -27 3 -66 8 -85 11 -39 7 -428 12 -475
7z"/>
</g>
</svg>
